# xmcd CD database file
#
# Track frame offsets:
#	150
#	14342
#	30015
#	44865
#	59601
#	75489
#	91376
#	106802
#	120218
#	138228
#	153229
#	170738
#	184853
#	201137
#
# Disc length: 2870 seconds
#
# Revision: 2
# Processed by: cddbd v1.5.2PL0 Copyright (c) Steve Scherf et al.
# Submitted via: CDex 2.21
#
DISCID=ad0b340e
DTITLE=Maren Morris - Hero Deluxe Edition
DYEAR=2016
DGENRE=Country
TTITLE0=Sugar
TTITLE1=Rich
TTITLE2=My Church
TTITLE3=I Could Use a Love Song
TTITLE4=80s Mercedes
TTITLE5=Drunk Girls Don't Cry
TTITLE6=How It's Done
TTITLE7=Just Another Thing
TTITLE8=I Wish I Was
TTITLE9=Second Wind
TTITLE10=Once
TTITLE11=Bummin' Cigarettes
TTITLE12=Comapny You Keep
TTITLE13=Space
EXTD=YEAR: 2016
EXTT0=
EXTT1=
EXTT2=
EXTT3=
EXTT4=
EXTT5=
EXTT6=
EXTT7=
EXTT8=
EXTT9=
EXTT10=
EXTT11=
EXTT12=
EXTT13=
PLAYORDER=
